HIERARCHY
ROOT Hips
{
	OFFSET 0.0000 0.0000 0.0000
	CHANNELS 6 Xposition Yposition Zposition Zrotation Xrotation Yrotation
	JOINT Spine1
	{
		OFFSET -0.0137 5.0038 -0.0537
		CHANNELS 3 Zrotation Xrotation Yrotation
		JOINT Spine2
		{
			OFFSET -0.0000 7.1253 -0.0298
			CHANNELS 3 Zrotation Xrotation Yrotation
			JOINT Chest
			{
				OFFSET -0.0000 7.5501 -0.8160
				CHANNELS 3 Zrotation Xrotation Yrotation
				JOINT Neck1
				{
					OFFSET -0.1817 26.3113 -0.5533
					CHANNELS 3 Zrotation Xrotation Yrotation
					JOINT Neck2
					{
						OFFSET -0.0000 7.7094 2.3026
						CHANNELS 3 Zrotation Xrotation Yrotation
						JOINT Head
						{
							OFFSET -0.0000 6.1289 1.9537
							CHANNELS 3 Zrotation Xrotation Yrotation
							JOINT Jaw
							{
								OFFSET 0.0026 0.4756 3.0949
								CHANNELS 3 Zrotation Xrotation Yrotation
								End Site
								{
									OFFSET 0.0 1.0 0.0
								}
							}
							JOINT LeftEye
							{
								OFFSET 3.2064 5.3802 7.5869
								CHANNELS 3 Zrotation Xrotation Yrotation
								End Site
								{
									OFFSET 0.0 1.0 0.0
								}
							}
							JOINT RightEye
							{
								OFFSET -3.2224 5.3619 7.5582
								CHANNELS 3 Zrotation Xrotation Yrotation
								End Site
								{
									OFFSET 0.0 1.0 0.0
								}
							}
						}
					}
				}
				JOINT LeftShoulder
				{
					OFFSET 1.6217 23.2372 5.1134
					CHANNELS 3 Zrotation Xrotation Yrotation
					JOINT LeftArm
					{
						OFFSET 14.9198 0.0000 -5.5023
						CHANNELS 3 Zrotation Xrotation Yrotation
						JOINT LeftForeArm
						{
							OFFSET 28.7393 0.0000 -0.0026
							CHANNELS 3 Zrotation Xrotation Yrotation
							JOINT LeftHand
							{
								OFFSET 27.0940 -0.0000 0.0026
								CHANNELS 3 Zrotation Xrotation Yrotation
								JOINT LeftHandThumbEnd
								{
									OFFSET 12.2686 -3.2202 4.8331
									CHANNELS 3 Zrotation Xrotation Yrotation
									End Site
									{
										OFFSET 0.0 1.0 0.0
									}
								}
								JOINT LeftHandMiddleEnd
								{
									OFFSET 19.0120 -0.3129 -0.0340
									CHANNELS 3 Zrotation Xrotation Yrotation
									End Site
									{
										OFFSET 0.0 1.0 0.0
									}
								}
							}
						}
					}
				}
				JOINT RightShoulder
				{
					OFFSET -1.3801 23.1803 5.2142
					CHANNELS 3 Zrotation Xrotation Yrotation
					JOINT RightArm
					{
						OFFSET -15.0372 0.0000 -5.5456
						CHANNELS 3 Zrotation Xrotation Yrotation
						JOINT RightForeArm
						{
							OFFSET -28.7366 0.0000 -0.0026
							CHANNELS 3 Zrotation Xrotation Yrotation
							JOINT RightHand
							{
								OFFSET -27.1336 -0.0000 0.0026
								CHANNELS 3 Zrotation Xrotation Yrotation
								JOINT RightHandThumbEnd
								{
									OFFSET -12.2642 -3.2115 4.8040
									CHANNELS 3 Zrotation Xrotation Yrotation
									End Site
									{
										OFFSET 0.0 1.0 0.0
									}
								}
								JOINT RightHandMiddleEnd
								{
									OFFSET -19.0006 -0.3066 -0.0316
									CHANNELS 3 Zrotation Xrotation Yrotation
									End Site
									{
										OFFSET 0.0 1.0 0.0
									}
								}
							}
						}
					}
				}
			}
		}
	}
	JOINT LeftLeg
	{
		OFFSET 10.0432 -8.4345 2.5957
		CHANNELS 3 Zrotation Xrotation Yrotation
		JOINT LeftShin
		{
			OFFSET -0.0000 -43.2218 -0.8029
			CHANNELS 3 Zrotation Xrotation Yrotation
			JOINT LeftFoot
			{
				OFFSET 0.0000 -42.1551 -3.4815
				CHANNELS 3 Zrotation Xrotation Yrotation
				JOINT LeftToeBase
				{
					OFFSET 0.0000 -5.0595 13.2315
					CHANNELS 3 Zrotation Xrotation Yrotation
					End Site
					{
						OFFSET 0.0 1.0 0.0
					}
				}
			}
		}
	}
	JOINT RightLeg
	{
		OFFSET -10.0473 -8.2953 2.6203
		CHANNELS 3 Zrotation Xrotation Yrotation
		JOINT RightShin
		{
			OFFSET 0.0000 -43.3622 -0.8056
			CHANNELS 3 Zrotation Xrotation Yrotation
			JOINT RightFoot
			{
				OFFSET 0.0000 -42.1174 -3.4784
				CHANNELS 3 Zrotation Xrotation Yrotation
				JOINT RightToeBase
				{
					OFFSET -0.0000 -5.0796 13.2842
					CHANNELS 3 Zrotation Xrotation Yrotation
					End Site
					{
						OFFSET 0.0 1.0 0.0
					}
				}
			}
		}
	}
}
MOTION
Frames: 8
Frame Time: 0.033333
-0.3404 95.8473 0.0563 0.0572 3.6730 12.9289 -1.5431 2.1258 -0.2679 -0.8906 -4.2819 0.6334 -0.7758 12.7380 -1.1859 5.7638 14.7545 1.3559 -1.8934 -3.6866 -3.6209 1.7175 -10.5490 -6.1438 0.0301 0.0308 -0.1148 0.7302 -10.4826 -3.9628 -0.6704 -10.5158 3.7271 -1.1458 11.9151 -9.8972 -48.0776 -4.9147 -26.6929 -0.1483 -0.6518 -106.5008 -7.9400 -11.6601 -3.1419 -14.6637 10.4337 15.7511 -59.9190 1.8196 2.5770 11.1834 14.1279 15.8774 26.7837 15.4367 7.0488 0.6266 2.8359 114.9216 7.9731 33.2669 7.3405 16.2894 7.7044 -16.8132 50.8054 -3.3939 -5.5352 11.7063 -24.7146 2.7420 -0.3572 28.1551 -0.6926 -11.8248 -8.5632 -13.8817 1.6217 0.6629 -1.9017 -10.4365 -17.4223 -23.7105 0.2292 30.4136 0.3706 13.6811 -14.0125 -7.3136 -1.4649 0.7776 1.0931
-0.5507 95.9122 0.5385 0.1465 3.5806 15.4945 -1.5135 1.7950 -0.0979 -0.9002 -4.4125 1.1616 -0.7631 12.3952 -0.3798 5.9783 15.1715 1.2905 -2.1044 -3.7174 -4.4170 2.1526 -9.8480 -7.4478 0.0310 0.0177 -0.1241 0.7369 -10.4673 -3.9707 -0.6759 -10.4978 3.7166 -0.6961 12.1277 -7.7998 -51.7208 -1.6567 -27.0607 0.0198 -0.6498 -106.0593 -8.9217 -7.0863 -3.4727 -14.5481 10.5269 15.6996 -60.2772 1.7984 2.5129 11.7880 14.1709 16.7476 21.8956 13.3984 2.9465 -0.4069 2.7824 113.7001 2.9482 33.1875 5.8735 16.7809 7.7672 -16.7521 51.3535 -3.3348 -5.5459 11.7863 -24.5273 0.9633 -0.3353 27.5972 -0.6486 -11.8051 -8.2234 -14.5466 1.6197 0.6466 -1.9100 -10.4730 -16.1677 -24.9919 0.2168 29.7756 0.3572 14.2498 -14.2008 -8.6480 -1.4616 0.8559 1.1294
-0.7177 95.9285 0.9501 0.3266 3.5019 17.6881 -1.4535 1.5244 0.0852 -0.9089 -4.5374 1.7161 -0.7458 12.0980 0.4590 6.1955 15.4148 1.1764 -2.2901 -3.7347 -5.2615 2.4530 -9.2373 -8.6003 0.0260 -0.0028 -0.1140 0.7364 -10.4773 -3.9614 -0.6864 -10.4993 3.7293 -0.1931 12.4900 -5.7368 -54.9049 1.6989 -27.2615 0.1363 -0.5035 -105.5740 -9.3799 -2.5269 -3.8933 -14.5070 10.5668 15.6274 -60.4960 1.7697 2.4563 12.1369 14.0584 17.7637 17.0698 9.9319 0.0908 -1.6287 2.5867 109.8453 -5.0539 32.7653 2.1757 17.2177 7.8290 -16.5918 51.9904 -3.1555 -5.5133 11.6943 -24.4355 -0.3732 -0.3173 27.1824 -0.6047 -11.6542 -7.9184 -15.1359 1.6157 0.5903 -1.9192 -10.6090 -15.1671 -25.9435 0.2084 29.2515 0.3489 14.8500 -14.3803 -9.8998 -1.4519 0.7869 1.1553
-0.8217 95.9366 1.2143 0.6085 3.4294 19.5002 -1.3753 1.3650 0.3050 -0.9020 -4.6344 2.2692 -0.7649 11.8603 1.2418 6.4832 15.5553 1.0531 -2.4920 -3.7609 -6.1701 2.6591 -8.7320 -9.6701 0.0214 -0.0255 -0.0959 0.7355 -10.5092 -3.9443 -0.6958 -10.5205 3.7516 0.2391 12.9442 -3.9569 -57.3204 4.8244 -27.2052 0.0435 -0.2514 -105.4046 -9.2691 0.5296 -4.1182 -14.5212 10.5781 15.5809 -60.4915 1.7370 2.3847 12.0025 13.6906 18.9552 12.6002 5.8659 -1.1635 -2.7377 2.2608 103.2382 -13.6493 30.8423 -2.3268 17.0988 7.9024 -16.4654 51.9838 -3.0053 -5.4898 11.3972 -24.4330 -1.2131 -0.3025 26.8278 -0.5770 -11.4826 -7.5307 -15.6544 1.6141 0.5101 -1.9309 -10.8662 -14.4907 -26.5932 0.2004 28.9089 0.3537 15.4072 -14.5426 -11.0277 -1.4439 0.6688 1.1744
-0.9079 95.9622 1.3481 0.9636 3.4227 21.0439 -1.2653 1.2687 0.4573 -0.8778 -4.6957 2.8949 -0.8054 11.7044 1.9212 6.8817 15.6263 0.9215 -2.7303 -3.8172 -7.1620 2.7775 -8.2269 -10.7211 0.0229 -0.0351 -0.0939 0.7359 -10.5396 -3.9466 -0.6935 -10.5401 3.7547 0.4545 13.3682 -2.4954 -58.9520 7.6662 -26.9917 -0.2009 -0.0071 -105.6684 -8.9207 1.8025 -4.1976 -14.6255 10.5820 15.5996 -60.3136 1.7074 2.2984 11.4417 13.1807 20.2990 8.2057 2.3025 -0.9361 -3.6894 1.7947 93.9299 -20.1833 27.7783 -5.0915 16.4457 7.9968 -16.5715 51.2250 -3.0622 -5.5803 10.9360 -24.4702 -1.6845 -0.2775 26.2738 -0.5515 -11.4387 -6.9414 -16.1141 1.6141 0.4541 -1.9345 -11.1612 -14.0945 -27.1315 0.1989 28.5737 0.3879 15.8384 -14.5771 -12.0283 -1.4377 0.5956 1.1763
-0.9801 96.0643 1.3685 1.3492 3.5196 22.4925 -1.1039 1.2084 0.6488 -0.8471 -4.7375 3.4481 -0.8633 11.6136 2.4889 7.4027 15.7719 0.7662 -3.0106 -3.8796 -8.1697 2.8505 -7.6527 -11.8979 0.0296 -0.0328 -0.0963 0.7418 -10.5644 -3.9506 -0.6864 -10.5610 3.7499 0.5380 13.7263 -1.3597 -59.9670 10.2061 -26.8463 -0.3302 0.2078 -106.2749 -8.7417 1.9815 -4.1083 -14.8392 10.5811 15.5435 -60.2422 1.7306 2.1391 10.6074 12.6587 21.7476 3.6273 0.4934 0.1171 -4.1598 1.4108 82.3047 -24.6400 24.6039 -5.7450 15.9155 8.0403 -16.8612 50.4241 -3.2762 -5.8307 10.3704 -24.5702 -2.0062 -0.2536 25.4777 -0.5318 -11.5093 -6.0986 -16.5715 1.6131 0.4070 -1.9430 -11.4213 -13.8643 -27.7342 0.1922 28.1177 0.4146 16.1778 -14.4629 -12.8917 -1.4333 0.5480 1.1613
-1.0342 96.2224 1.3181 1.6567 3.6867 23.9920 -0.8545 1.1550 0.8018 -0.8133 -4.7511 3.9990 -0.8612 11.5481 3.0080 7.9672 15.9588 0.5560 -3.3198 -3.9520 -9.1862 2.9456 -6.9726 -13.1811 0.0327 -0.0270 -0.0906 0.7404 -10.5977 -3.9510 -0.6795 -10.5965 3.7585 0.5603 13.9527 -0.4731 -60.6290 12.4190 -26.7624 -0.3266 0.4438 -107.0460 -8.7704 1.7508 -3.9501 -15.0909 10.6364 15.5017 -60.3391 1.7876 2.0013 9.5119 12.1510 23.2033 -0.8280 1.4974 1.3558 -4.1128 1.2381 68.4946 -27.4318 21.1136 -4.8535 15.9891 7.8996 -17.1840 50.0458 -3.5752 -6.1943 9.8555 -24.6232 -2.3132 -0.2336 24.3239 -0.5184 -11.6572 -5.0437 -17.1258 1.6137 0.3556 -1.9483 -11.5384 -13.5601 -28.4905 0.1711 27.3361 0.4169 16.3626 -14.1195 -13.7323 -1.4287 0.5406 1.1278
-1.0879 96.4507 1.2464 1.8343 3.9569 25.6394 -0.5301 1.1016 0.9193 -0.7817 -4.7402 4.4637 -0.7685 11.4498 3.5544 8.5473 16.0718 0.3077 -3.5826 -4.0275 -10.2075 3.0603 -6.3501 -14.4142 0.0403 -0.0229 -0.1038 0.7445 -10.6240 -3.9726 -0.6690 -10.6303 3.7499 0.5905 13.9979 0.2296 -61.1172 14.2854 -26.5251 -0.2098 0.5417 -107.9779 -8.9865 1.1204 -3.6069 -15.3841 10.6893 15.4691 -60.4581 1.8222 1.9167 8.0862 11.6048 24.6284 -4.3486 5.2624 2.1238 -3.2863 0.9755 53.4239 -28.1458 16.6613 -2.7290 16.4200 7.5110 -17.3729 49.7778 -3.9049 -6.5071 9.4420 -24.7129 -2.6249 -0.2262 22.9250 -0.5446 -11.8073 -3.8562 -17.8053 1.6165 0.3073 -1.9350 -11.4437 -13.0611 -29.3959 0.1416 26.1403 0.4003 16.3504 -13.5668 -14.6660 -1.4255 0.5206 1.0963
